# xmcd
#
# Track frame offsets:
# 150
# 27850
# 48340
# 66050
# 85505
# 105857
# 125970
# 152832
# 172875
# 188935
# 210045
# 246877
#
# Disc length: 3740 seconds
#
#
# Revision: 1
# Processed by: cddbd v1.4PL0 Copyright (c) Steve Scherf et al.
# Submitted via: FreeRIP 2.40 
#
DISCID=8f0e9a0c
DTITLE=exit - dust on the sleeve of a constant divorce
DYEAR=1998
DGENRE=Gothic
TTITLE0=12.1.10
TTITLE1=blonde
TTITLE2=kendalla
TTITLE3=wash
TTITLE4=stillhouse hollow
TTITLE5=echoes
TTITLE6=lost city
TTITLE7=the page that tears with each look back
TTITLE8=our little secret
TTITLE9=h.b.m.a
TTITLE10=enough
TTITLE11=last
EXTD=
EXTT0=
EXTT1=
EXTT2=
EXTT3=
EXTT4=
EXTT5=
EXTT6=
EXTT7=
EXTT8=
EXTT9=
EXTT10=
EXTT11=
PLAYORDER=
